<?xml version="1.0" encoding="UTF-8"?>
<svg xmlns="http://www.w3.org/2000/svg" width="1200" height="900" viewBox="0 0 1200 900">
  <defs>
    <style>
      text { font-family: 'Segoe UI', Arial, Helvetica, sans-serif; }
    </style>
  </defs>
  <rect width="1200" height="900" fill="#ffffff"/>
  <title>Dashboard</title>

  <!-- Top Navigation Bar -->
  <rect x="0" y="0" width="1200" height="56" fill="#f5f5f5" stroke="#bbbbbb" stroke-width="1"/>
  <rect x="20" y="16" width="120" height="24" rx="4" fill="#4a90d9"/>
  <text x="80" y="33" text-anchor="middle" fill="white" font-size="13" font-weight="bold">SecureFlow</text>
  <text x="200" y="35" fill="#333333" font-size="13" font-weight="600">Dashboard</text>
  <text x="295" y="35" fill="#666666" font-size="13">Questionnaires</text>
  <text x="410" y="35" fill="#666666" font-size="13">Evidence</text>
  <text x="495" y="35" fill="#666666" font-size="13">Integrations</text>
  <rect x="1120" y="16" width="60" height="24" rx="12" fill="#e8e8e8" stroke="#bbbbbb" stroke-width="1"/>
  <text x="1150" y="33" text-anchor="middle" fill="#666666" font-size="11">User</text>

  <text x="40" y="96" fill="#333333" font-size="22" font-weight="bold">Good morning, Alex</text>
  <text x="40" y="118" fill="#666666" font-size="13">Here is your compliance overview for today.</text>

  <rect x="40" y="145" width="260" height="85" rx="6" fill="#f5f5f5" stroke="#bbbbbb" stroke-width="1.5"/>
  <text x="170" y="173" text-anchor="middle" fill="#333333" font-size="14" font-weight="600">12</text>
  <text x="170" y="195" text-anchor="middle" fill="#666666" font-size="12">Active Questionnaires</text>

  <rect x="325" y="145" width="260" height="85" rx="6" fill="#f5f5f5" stroke="#bbbbbb" stroke-width="1.5"/>
  <text x="455" y="173" text-anchor="middle" fill="#333333" font-size="14" font-weight="600">47</text>
  <text x="455" y="195" text-anchor="middle" fill="#666666" font-size="12">Pending Tasks</text>

  <rect x="610" y="145" width="260" height="85" rx="6" fill="#e3f0fc" stroke="#4a90d9" stroke-width="1.5"/>
  <text x="740" y="173" text-anchor="middle" fill="#333333" font-size="14" font-weight="600">87%</text>
  <text x="740" y="195" text-anchor="middle" fill="#666666" font-size="12">Compliance Score</text>

  <rect x="895" y="145" width="260" height="85" rx="6" fill="#f5f5f5" stroke="#bbbbbb" stroke-width="1.5"/>
  <text x="1025" y="173" text-anchor="middle" fill="#333333" font-size="14" font-weight="600">234</text>
  <text x="1025" y="195" text-anchor="middle" fill="#666666" font-size="12">Evidence Artifacts</text>

  <text x="40" y="260" fill="#333333" font-size="16" font-weight="bold">Active Questionnaires</text>
  <rect x="40" y="272" width="1120" height="36" rx="4" fill="#e8e8e8"/>
  <text x="60" y="296" fill="#666666" font-size="12" font-weight="600">Name</text>
  <text x="320" y="296" fill="#666666" font-size="12" font-weight="600">Framework</text>
  <text x="510" y="296" fill="#666666" font-size="12" font-weight="600">Status</text>
  <text x="670" y="296" fill="#666666" font-size="12" font-weight="600">Due Date</text>
  <text x="840" y="296" fill="#666666" font-size="12" font-weight="600">Progress</text>
  <rect x="40" y="308" width="1120" height="38" fill="#ffffff" stroke="#bbbbbb" stroke-width="0.5"/>
  <text x="60" y="332" fill="#333333" font-size="12">SOC 2 Type II Assessment</text>
  <text x="320" y="332" fill="#666666" font-size="12">SOC 2</text>
  <rect x="510" y="316" width="80" height="22" rx="11" fill="#e3f0fc" stroke="#4a90d9" stroke-width="1"/>
  <text x="550" y="332" text-anchor="middle" fill="#4a90d9" font-size="10" font-weight="600">In Progress</text>
  <text x="670" y="332" fill="#666666" font-size="12">May 15, 2026</text>
  <rect x="840" y="322" width="120" height="10" rx="5" fill="#e8e8e8"/>
  <rect x="840" y="322" width="86" height="10" rx="5" fill="#4a90d9"/>
  <text x="970" y="332" fill="#666666" font-size="11">72%</text>
  <rect x="40" y="348" width="1120" height="38" fill="#f5f5f5" stroke="#bbbbbb" stroke-width="0.5"/>
  <text x="60" y="372" fill="#333333" font-size="12">ISO 27001 Renewal</text>
  <text x="320" y="372" fill="#666666" font-size="12">ISO 27001</text>
  <rect x="510" y="356" width="80" height="22" rx="11" fill="#fef8e9" stroke="#f0ad4e" stroke-width="1"/>
  <text x="550" y="372" text-anchor="middle" fill="#f0ad4e" font-size="10" font-weight="600">Not Started</text>
  <text x="670" y="372" fill="#666666" font-size="12">Jun 1, 2026</text>
  <rect x="840" y="362" width="120" height="10" rx="5" fill="#e8e8e8"/>
  <rect x="840" y="362" width="0" height="10" rx="5" fill="#4a90d9"/>
  <text x="970" y="372" fill="#666666" font-size="11">0%</text>
  <rect x="40" y="388" width="1120" height="38" fill="#ffffff" stroke="#bbbbbb" stroke-width="0.5"/>
  <text x="60" y="412" fill="#333333" font-size="12">PCI-DSS Self-Assessment</text>
  <text x="320" y="412" fill="#666666" font-size="12">PCI-DSS</text>
  <rect x="510" y="396" width="80" height="22" rx="11" fill="#eaf7ea" stroke="#5cb85c" stroke-width="1"/>
  <text x="550" y="412" text-anchor="middle" fill="#5cb85c" font-size="10" font-weight="600">Review</text>
  <text x="670" y="412" fill="#666666" font-size="12">May 22, 2026</text>
  <rect x="840" y="402" width="120" height="10" rx="5" fill="#e8e8e8"/>
  <rect x="840" y="402" width="109" height="10" rx="5" fill="#4a90d9"/>
  <text x="970" y="412" fill="#666666" font-size="11">91%</text>
  <rect x="40" y="428" width="1120" height="38" fill="#f5f5f5" stroke="#bbbbbb" stroke-width="0.5"/>
  <text x="60" y="452" fill="#333333" font-size="12">GDPR Data Mapping</text>
  <text x="320" y="452" fill="#666666" font-size="12">GDPR</text>
  <rect x="510" y="436" width="80" height="22" rx="11" fill="#e3f0fc" stroke="#4a90d9" stroke-width="1"/>
  <text x="550" y="452" text-anchor="middle" fill="#4a90d9" font-size="10" font-weight="600">In Progress</text>
  <text x="670" y="452" fill="#666666" font-size="12">Jun 10, 2026</text>
  <rect x="840" y="442" width="120" height="10" rx="5" fill="#e8e8e8"/>
  <rect x="840" y="442" width="54" height="10" rx="5" fill="#4a90d9"/>
  <text x="970" y="452" fill="#666666" font-size="11">45%</text>

  <text x="40" y="498" fill="#333333" font-size="16" font-weight="bold">Quick Actions</text>

  <rect x="40" y="514" width="170" height="40" rx="5" fill="#4a90d9" stroke="#4a90d9" stroke-width="1.5"/>
  <text x="125" y="539" text-anchor="middle" fill="white" font-size="12" font-weight="600">+ Upload Questionnaire</text>

  <rect x="230" y="514" width="140" height="40" rx="5" fill="#f5f5f5" stroke="#4a90d9" stroke-width="1.5"/>
  <text x="300" y="539" text-anchor="middle" fill="#4a90d9" font-size="12" font-weight="600">Browse Evidence</text>

  <rect x="390" y="514" width="160" height="40" rx="5" fill="#f5f5f5" stroke="#4a90d9" stroke-width="1.5"/>
  <text x="470" y="539" text-anchor="middle" fill="#4a90d9" font-size="12" font-weight="600">View Integrations</text>

  <rect x="570" y="514" width="130" height="40" rx="5" fill="#f5f5f5" stroke="#4a90d9" stroke-width="1.5"/>
  <text x="635" y="539" text-anchor="middle" fill="#4a90d9" font-size="12" font-weight="600">Generate Report</text>
</svg>