<svg xmlns="http://www.w3.org/2000/svg" width="1280" height="900" viewBox="0 0 1280 900">
  <defs>
    <style>
      text { font-family: -apple-system, BlinkMacSystemFont, 'Segoe UI', Roboto, sans-serif; }
    </style>
  </defs>
  <rect width="1280" height="900" fill="#F7FAFC"/>
  
  <!-- Header -->
  <rect width="1280" height="60" fill="#2D3748"/>
  <text x="32" y="38" fill="white" font-size="20" font-weight="700">SecureResp</text>
  <text x="480" y="38" fill="#A0AEC0" font-size="14">Dashboard</text>
  <text x="580" y="38" fill="#A0AEC0" font-size="14">Questionnaires</text>
  <text x="720" y="38" fill="#A0AEC0" font-size="14">Evidence</text>
  <text x="810" y="38" fill="#CBD5E0" font-size="14">Sources</text>
  <text x="890" y="38" fill="#A0AEC0" font-size="14">Settings</text>
  <circle cx="1230" cy="30" r="18" fill="#4299E1"/>
  <text x="1224" y="35" fill="white" font-size="14" font-weight="600">JD</text>

  <!-- Title -->
  <text x="32" y="100" fill="#2D3748" font-size="24" font-weight="700">Evidence Sources</text>
  <text x="32" y="122" fill="#A0AEC0" font-size="13">Connect and manage integrations with your engineering tools for automated evidence collection.</text>
  
  <!-- Summary Stats -->
  <rect x="32" y="145" width="180" height="60" rx="8" fill="white" stroke="#E2E8F0" stroke-width="1"/>
  <text x="52" y="170" fill="#A0AEC0" font-size="11">CONNECTED</text>
  <text x="52" y="192" fill="#48BB78" font-size="20" font-weight="700">4 sources</text>
  
  <rect x="227" y="145" width="180" height="60" rx="8" fill="white" stroke="#E2E8F0" stroke-width="1"/>
  <text x="247" y="170" fill="#A0AEC0" font-size="11">LAST SYNC</text>
  <text x="247" y="192" fill="#2D3748" font-size="20" font-weight="700">12 min ago</text>
  
  <rect x="422" y="145" width="180" height="60" rx="8" fill="white" stroke="#E2E8F0" stroke-width="1"/>
  <text x="442" y="170" fill="#A0AEC0" font-size="11">TOTAL ITEMS</text>
  <text x="442" y="192" fill="#2D3748" font-size="20" font-weight="700">1,247</text>

  <!-- Source Cards -->
  <!-- AWS -->
  <rect x="32" y="230" width="600" height="150" rx="8" fill="white" stroke="#E2E8F0" stroke-width="1"/>
  <rect x="52" y="250" width="48" height="48" rx="8" fill="#FFF5F5"/>
  <text x="64" y="280" fill="#F56565" font-size="18" font-weight="700">☁</text>
  <text x="116" y="268" fill="#2D3748" font-size="16" font-weight="600">AWS</text>
  <text x="116" y="288" fill="#A0AEC0" font-size="12">Config, CloudTrail, Security Hub</text>
  
  <!-- Status indicator - Connected -->
  <circle cx="560" cy="256" r="6" fill="#48BB78"/>
  <text x="530" y="260" fill="#48BB78" font-size="11" font-weight="500">Connected</text>
  
  <!-- Sync info -->
  <text x="116" y="316" fill="#A0AEC0" font-size="11">Last sync: 12 minutes ago</text>
  <text x="310" y="316" fill="#A0AEC0" font-size="11">312 items synced</text>
  
  <!-- Actions -->
  <rect x="116" y="332" width="80" height="28" rx="4" fill="white" stroke="#CBD5E0" stroke-width="1"/>
  <text x="134" y="351" fill="#4A5568" font-size="11">Configure</text>
  <rect x="206" y="332" width="68" height="28" rx="4" fill="white" stroke="#F56565" stroke-width="1"/>
  <text x="220" y="351" fill="#F56565" font-size="11">Disconnect</text>
  <rect x="284" y="332" width="72" height="28" rx="4" fill="#4299E1"/>
  <text x="300" y="351" fill="white" font-size="11">Sync Now</text>

  <!-- GitHub -->
  <rect x="652" y="230" width="600" height="150" rx="8" fill="white" stroke="#E2E8F0" stroke-width="1"/>
  <rect x="672" y="250" width="48" height="48" rx="8" fill="#F7FAFC"/>
  <text x="684" y="280" fill="#2D3748" font-size="18" font-weight="700">⌥</text>
  <text x="736" y="268" fill="#2D3748" font-size="16" font-weight="600">GitHub</text>
  <text x="736" y="288" fill="#A0AEC0" font-size="12">Repositories, Pull Requests, Actions</text>
  
  <circle cx="1180" cy="256" r="6" fill="#48BB78"/>
  <text x="1150" y="260" fill="#48BB78" font-size="11" font-weight="500">Connected</text>
  
  <text x="736" y="316" fill="#A0AEC0" font-size="11">Last sync: 1 hour ago</text>
  <text x="920" y="316" fill="#A0AEC0" font-size="11">489 items synced</text>
  
  <rect x="736" y="332" width="80" height="28" rx="4" fill="white" stroke="#CBD5E0" stroke-width="1"/>
  <text x="754" y="351" fill="#4A5568" font-size="11">Configure</text>
  <rect x="826" y="332" width="68" height="28" rx="4" fill="white" stroke="#F56565" stroke-width="1"/>
  <text x="840" y="351" fill="#F56565" font-size="11">Disconnect</text>
  <rect x="904" y="332" width="72" height="28" rx="4" fill="#4299E1"/>
  <text x="920" y="351" fill="white" font-size="11">Sync Now</text>

  <!-- Jira -->
  <rect x="32" y="400" width="600" height="150" rx="8" fill="white" stroke="#E2E8F0" stroke-width="1"/>
  <rect x="52" y="420" width="48" height="48" rx="8" fill="#EBF4FF"/>
  <text x="64" y="450" fill="#4299E1" font-size="18" font-weight="700">J</text>
  <text x="116" y="438" fill="#2D3748" font-size="16" font-weight="600">Jira</text>
  <text x="116" y="458" fill="#A0AEC0" font-size="12">Issues, Projects, Workflows</text>
  
  <circle cx="560" cy="426" r="6" fill="#48BB78"/>
  <text x="530" y="430" fill="#48BB78" font-size="11" font-weight="500">Connected</text>
  
  <text x="116" y="486" fill="#A0AEC0" font-size="11">Last sync: 3 hours ago</text>
  <text x="310" y="486" fill="#A0AEC0" font-size="11">198 items synced</text>
  
  <rect x="116" y="502" width="80" height="28" rx="4" fill="white" stroke="#CBD5E0" stroke-width="1"/>
  <text x="134" y="521" fill="#4A5568" font-size="11">Configure</text>
  <rect x="206" y="502" width="68" height="28" rx="4" fill="white" stroke="#F56565" stroke-width="1"/>
  <text x="220" y="521" fill="#F56565" font-size="11">Disconnect</text>
  <rect x="284" y="502" width="72" height="28" rx="4" fill="#4299E1"/>
  <text x="300" y="521" fill="white" font-size="11">Sync Now</text>

  <!-- Google Workspace -->
  <rect x="652" y="400" width="600" height="150" rx="8" fill="white" stroke="#E2E8F0" stroke-width="1"/>
  <rect x="672" y="420" width="48" height="48" rx="8" fill="#F0FFF4"/>
  <text x="684" y="450" fill="#48BB78" font-size="18" font-weight="700">G</text>
  <text x="736" y="438" fill="#2D3748" font-size="16" font-weight="600">Google Workspace</text>
  <text x="736" y="458" fill="#A0AEC0" font-size="12">Drive, Docs, Admin Console</text>
  
  <circle cx="1180" cy="426" r="6" fill="#48BB78"/>
  <text x="1150" y="430" fill="#48BB78" font-size="11" font-weight="500">Connected</text>
  
  <text x="736" y="486" fill="#A0AEC0" font-size="11">Last sync: 6 hours ago</text>
  <text x="920" y="486" fill="#A0AEC0" font-size="11">248 items synced</text>
  
  <rect x="736" y="502" width="80" height="28" rx="4" fill="white" stroke="#CBD5E0" stroke-width="1"/>
  <text x="754" y="521" fill="#4A5568" font-size="11">Configure</text>
  <rect x="826" y="502" width="68" height="28" rx="4" fill="white" stroke="#F56565" stroke-width="1"/>
  <text x="840" y="521" fill="#F56565" font-size="11">Disconnect</text>
  <rect x="904" y="502" width="72" height="28" rx="4" fill="#4299E1"/>
  <text x="920" y="521" fill="white" font-size="11">Sync Now</text>

  <!-- Slack (Not Connected) -->
  <rect x="32" y="570" width="600" height="150" rx="8" fill="white" stroke="#E2E8F0" stroke-width="1" opacity="0.8"/>
  <rect x="52" y="590" width="48" height="48" rx="8" fill="#F7FAFC"/>
  <text x="64" y="620" fill="#A0AEC0" font-size="18" font-weight="700">S</text>
  <text x="116" y="608" fill="#4A5568" font-size="16" font-weight="600">Slack</text>
  <text x="116" y="628" fill="#A0AEC0" font-size="12">Channels, Messages, Files</text>
  
  <circle cx="560" cy="596" r="6" fill="#CBD5E0"/>
  <text x="530" y="600" fill="#A0AEC0" font-size="11">Not Connected</text>
  
  <text x="116" y="656" fill="#A0AEC0" font-size="11">Sync evidence from Slack channels and shared files.</text>
  
  <rect x="116" y="672" width="80" height="28" rx="4" fill="#4299E1"/>
  <text x="136" y="691" fill="white" font-size="11">Connect</text>

  <!-- Azure DevOps (Not Connected) -->
  <rect x="652" y="570" width="600" height="150" rx="8" fill="white" stroke="#E2E8F0" stroke-width="1" opacity="0.8"/>
  <rect x="672" y="590" width="48" height="48" rx="8" fill="#F7FAFC"/>
  <text x="684" y="620" fill="#A0AEC0" font-size="18" font-weight="700">A</text>
  <text x="736" y="608" fill="#4A5568" font-size="16" font-weight="600">Azure DevOps</text>
  <text x="736" y="628" fill="#A0AEC0" font-size="12">Repos, Pipelines, Work Items</text>
  
  <circle cx="1180" cy="596" r="6" fill="#CBD5E0"/>
  <text x="1150" y="600" fill="#A0AEC0" font-size="11">Not Connected</text>
  
  <text x="736" y="656" fill="#A0AEC0" font-size="11">Sync evidence from Azure DevOps repos and pipelines.</text>
  
  <rect x="736" y="672" width="80" height="28" rx="4" fill="#4299E1"/>
  <text x="756" y="691" fill="white" font-size="11">Connect</text>

  <!-- Configure Sync Settings Modal -->
  <rect x="240" y="100" width="800" height="560" rx="12" fill="white" stroke="#CBD5E0" stroke-width="2" opacity="0.95"/>
  <rect x="240" y="100" width="800" height="50" rx="12" fill="#F7FAFC"/>
  <rect x="240" y="130" width="800" height="20" fill="#F7FAFC"/>
  <text x="280" y="132" fill="#2D3748" font-size="16" font-weight="600">Configure AWS Sync Settings</text>
  <text x="980" y="132" fill="#A0AEC0" font-size="14">✕</text>
  
  <!-- Sync Frequency -->
  <text x="280" y="180" fill="#4A5568" font-size="12" font-weight="500">Sync Frequency</text>
  <rect x="280" y="190" width="150" height="32" rx="6" fill="#4299E1"/>
  <text x="310" y="211" fill="white" font-size="12">Every 15 min</text>
  <rect x="440" y="190" width="150" height="32" rx="6" fill="white" stroke="#CBD5E0" stroke-width="1"/>
  <text x="470" y="211" fill="#4A5568" font-size="12">Every hour</text>
  <rect x="600" y="190" width="150" height="32" rx="6" fill="white" stroke="#CBD5E0" stroke-width="1"/>
  <text x="630" y="211" fill="#4A5568" font-size="12">Daily</text>
  
  <!-- Services to sync -->
  <text x="280" y="255" fill="#4A5568" font-size="12" font-weight="500">AWS Services to Sync</text>
  <rect x="280" y="268" width="340" height="34" rx="6" fill="#EBF4FF" stroke="#4299E1" stroke-width="1"/>
  <text x="300" y="290" fill="#2D3748" font-size="12">✓ AWS Config</text>
  <rect x="630" y="268" width="340" height="34" rx="6" fill="EBF4FF" stroke="#4299E1" stroke-width="1"/>
  <text x="650" y="290" fill="#2D3748" font-size="12">✓ AWS CloudTrail</text>
  <rect x="280" y="310" width="340" height="34" rx="6" fill="white" stroke="#CBD5E0" stroke-width="1"/>
  <text x="300" y="332" fill="#4A5568" font-size="12">☐ AWS Security Hub</text>
  <rect x="630" y="310" width="340" height="34" rx="6" fill="EBF4FF" stroke="#4299E1" stroke-width="1"/>
  <text x="650" y="332" fill="#2D3748" font-size="12">✓ AWS IAM</text>
  
  <!-- Filters -->
  <text x="280" y="375" fill="#4A5568" font-size="12" font-weight="500">Region Filter</text>
  <rect x="280" y="385" width="690" height="34" rx="6" fill="white" stroke="#CBD5E0" stroke-width="1"/>
  <rect x="294" y="393" width="80" height="18" rx="9" fill="#EBF4FF"/>
  <text x="304" y="406" fill="#4299E1" font-size="10">us-east-1</text>
  <rect x="380" y="393" width="80" height="18" rx="9" fill="#EBF4FF"/>
  <text x="390" y="406" fill="#4299E1" font-size="10">eu-west-1</text>
  <text x="470" y="406" fill="#A0AEC0" font-size="11">Add region...</text>
  
  <!-- Modal Actions -->
  <rect x="280" y="440" width="690" height="1" fill="#E2E8F0"/>
  <rect x="790" y="460" width="180" height="36" rx="6" fill="#4299E1"/>
  <text x="830" y="483" fill="white" font-size="13" font-weight="600">Save Settings</text>
  <rect x="600" y="460" width="80" height="36" rx="6" fill="white" stroke="#CBD5E0" stroke-width="1"/>
  <text x="622" y="483" fill="#4A5568" font-size="13">Cancel</text>
</svg>