<?xml version="1.0" encoding="UTF-8"?>
<svg xmlns="http://www.w3.org/2000/svg" width="1200" height="900" viewBox="0 0 1200 900">
  <defs>
    <style>
      text { font-family: 'Segoe UI', Arial, Helvetica, sans-serif; }
    </style>
  </defs>
  <rect width="1200" height="900" fill="#ffffff"/>
  <title>Evidence Library</title>

  <!-- Top Navigation Bar -->
  <rect x="0" y="0" width="1200" height="56" fill="#f5f5f5" stroke="#bbbbbb" stroke-width="1"/>
  <rect x="20" y="16" width="120" height="24" rx="4" fill="#4a90d9"/>
  <text x="80" y="33" text-anchor="middle" fill="white" font-size="13" font-weight="bold">SecureFlow</text>
  <text x="200" y="35" fill="#333333" font-size="13" font-weight="600">Dashboard</text>
  <text x="295" y="35" fill="#666666" font-size="13">Questionnaires</text>
  <text x="410" y="35" fill="#666666" font-size="13">Evidence</text>
  <text x="495" y="35" fill="#666666" font-size="13">Integrations</text>
  <rect x="1120" y="16" width="60" height="24" rx="12" fill="#e8e8e8" stroke="#bbbbbb" stroke-width="1"/>
  <text x="1150" y="33" text-anchor="middle" fill="#666666" font-size="11">User</text>

  <text x="40" y="100" fill="#333333" font-size="22" font-weight="bold">Evidence Library</text>
  <rect x="40" y="115" width="720" height="42" rx="6" fill="#f5f5f5" stroke="#bbbbbb" stroke-width="1.5"/>
  <text x="70" y="142" fill="#999999" font-size="14">🔍 Search evidence, policies, diagrams...</text>

  <rect x="780" y="115" width="120" height="42" rx="5" fill="#4a90d9" stroke="#4a90d9" stroke-width="1.5"/>
  <text x="840" y="141" text-anchor="middle" fill="white" font-size="12" font-weight="600">Search</text>

  <rect x="920" y="115" width="140" height="42" rx="5" fill="#f5f5f5" stroke="#4a90d9" stroke-width="1.5"/>
  <text x="990" y="141" text-anchor="middle" fill="#4a90d9" font-size="12" font-weight="600">+ Add Evidence</text>
  <rect x="40" y="180" width="64" height="32" rx="6" fill="#4a90d9" stroke="#4a90d9" stroke-width="1.5"/>
  <text x="72" y="202" text-anchor="middle" fill="white" font-size="12" font-weight="600">All</text>
  <rect x="112" y="180" width="124" height="32" rx="6" fill="#f5f5f5" stroke="#bbbbbb" stroke-width="1.5"/>
  <text x="174" y="202" text-anchor="middle" fill="#666666" font-size="12" font-weight="600">Policies</text>
  <rect x="244" y="180" width="124" height="32" rx="6" fill="#f5f5f5" stroke="#bbbbbb" stroke-width="1.5"/>
  <text x="306" y="202" text-anchor="middle" fill="#666666" font-size="12" font-weight="600">Diagrams</text>
  <rect x="376" y="180" width="172" height="32" rx="6" fill="#f5f5f5" stroke="#bbbbbb" stroke-width="1.5"/>
  <text x="462" y="202" text-anchor="middle" fill="#666666" font-size="12" font-weight="600">Certificates</text>
  <rect x="556" y="180" width="112" height="32" rx="6" fill="#f5f5f5" stroke="#bbbbbb" stroke-width="1.5"/>
  <text x="612" y="202" text-anchor="middle" fill="#666666" font-size="12" font-weight="600">Reports</text>
  <rect x="676" y="180" width="112" height="32" rx="6" fill="#f5f5f5" stroke="#bbbbbb" stroke-width="1.5"/>
  <text x="732" y="202" text-anchor="middle" fill="#666666" font-size="12" font-weight="600">Configs</text>
  <rect x="796" y="180" width="100" height="32" rx="6" fill="#f5f5f5" stroke="#bbbbbb" stroke-width="1.5"/>
  <text x="846" y="202" text-anchor="middle" fill="#666666" font-size="12" font-weight="600">Audits</text>

  <rect x="40" y="230" width="360" height="140" rx="8" fill="#f5f5f5" stroke="#bbbbbb" stroke-width="1.5"/>
  <text x="56" y="260" fill="#333333" font-size="13" font-weight="600">📄 AES-256 Encryption Policy</text>
  <rect x="56" y="272" width="70" height="22" rx="11" fill="#e3f0fc" stroke="#4a90d9" stroke-width="1"/>
  <text x="91" y="288" text-anchor="middle" fill="#4a90d9" font-size="10" font-weight="600">Policy</text>
  <text x="56" y="312" fill="#999999" font-size="11">Updated 2 days ago</text>
  <rect x="56" y="325" width="80" height="26" rx="4" fill="#e8e8e8" stroke="#bbbbbb" stroke-width="1"/>
  <text x="96" y="343" text-anchor="middle" fill="#666666" font-size="10">View</text>
  <rect x="146" y="325" width="80" height="26" rx="4" fill="#e8e8e8" stroke="#bbbbbb" stroke-width="1"/>
  <text x="186" y="343" text-anchor="middle" fill="#666666" font-size="10">Download</text>
  <rect x="236" y="325" width="80" height="26" rx="4" fill="#e8e8e8" stroke="#bbbbbb" stroke-width="1"/>
  <text x="276" y="343" text-anchor="middle" fill="#666666" font-size="10">Link</text>

  <rect x="420" y="230" width="360" height="140" rx="8" fill="#f5f5f5" stroke="#bbbbbb" stroke-width="1.5"/>
  <text x="436" y="260" fill="#333333" font-size="13" font-weight="600">🗺 Network Architecture Diagram</text>
  <rect x="436" y="272" width="79" height="22" rx="11" fill="#e3f0fc" stroke="#4a90d9" stroke-width="1"/>
  <text x="475" y="288" text-anchor="middle" fill="#4a90d9" font-size="10" font-weight="600">Diagram</text>
  <text x="436" y="312" fill="#999999" font-size="11">Updated 1 week ago</text>
  <rect x="436" y="325" width="80" height="26" rx="4" fill="#e8e8e8" stroke="#bbbbbb" stroke-width="1"/>
  <text x="476" y="343" text-anchor="middle" fill="#666666" font-size="10">View</text>
  <rect x="526" y="325" width="80" height="26" rx="4" fill="#e8e8e8" stroke="#bbbbbb" stroke-width="1"/>
  <text x="566" y="343" text-anchor="middle" fill="#666666" font-size="10">Download</text>
  <rect x="616" y="325" width="80" height="26" rx="4" fill="#e8e8e8" stroke="#bbbbbb" stroke-width="1"/>
  <text x="656" y="343" text-anchor="middle" fill="#666666" font-size="10">Link</text>

  <rect x="800" y="230" width="360" height="140" rx="8" fill="#f5f5f5" stroke="#bbbbbb" stroke-width="1.5"/>
  <text x="816" y="260" fill="#333333" font-size="13" font-weight="600">🏅 SOC 2 Type II Certificate</text>
  <rect x="816" y="272" width="115" height="22" rx="11" fill="#e3f0fc" stroke="#4a90d9" stroke-width="1"/>
  <text x="873" y="288" text-anchor="middle" fill="#4a90d9" font-size="10" font-weight="600">Certificate</text>
  <text x="816" y="312" fill="#999999" font-size="11">Issued Jan 2026</text>
  <rect x="816" y="325" width="80" height="26" rx="4" fill="#e8e8e8" stroke="#bbbbbb" stroke-width="1"/>
  <text x="856" y="343" text-anchor="middle" fill="#666666" font-size="10">View</text>
  <rect x="906" y="325" width="80" height="26" rx="4" fill="#e8e8e8" stroke="#bbbbbb" stroke-width="1"/>
  <text x="946" y="343" text-anchor="middle" fill="#666666" font-size="10">Download</text>
  <rect x="996" y="325" width="80" height="26" rx="4" fill="#e8e8e8" stroke="#bbbbbb" stroke-width="1"/>
  <text x="1036" y="343" text-anchor="middle" fill="#666666" font-size="10">Link</text>

  <rect x="40" y="390" width="360" height="140" rx="8" fill="#f5f5f5" stroke="#bbbbbb" stroke-width="1.5"/>
  <text x="56" y="420" fill="#333333" font-size="13" font-weight="600">📄 Incident Response Plan v3.2</text>
  <rect x="56" y="432" width="70" height="22" rx="11" fill="#e3f0fc" stroke="#4a90d9" stroke-width="1"/>
  <text x="91" y="448" text-anchor="middle" fill="#4a90d9" font-size="10" font-weight="600">Policy</text>
  <text x="56" y="472" fill="#999999" font-size="11">Updated 3 days ago</text>
  <rect x="56" y="485" width="80" height="26" rx="4" fill="#e8e8e8" stroke="#bbbbbb" stroke-width="1"/>
  <text x="96" y="503" text-anchor="middle" fill="#666666" font-size="10">View</text>
  <rect x="146" y="485" width="80" height="26" rx="4" fill="#e8e8e8" stroke="#bbbbbb" stroke-width="1"/>
  <text x="186" y="503" text-anchor="middle" fill="#666666" font-size="10">Download</text>
  <rect x="236" y="485" width="80" height="26" rx="4" fill="#e8e8e8" stroke="#bbbbbb" stroke-width="1"/>
  <text x="276" y="503" text-anchor="middle" fill="#666666" font-size="10">Link</text>

  <rect x="420" y="390" width="360" height="140" rx="8" fill="#f5f5f5" stroke="#bbbbbb" stroke-width="1.5"/>
  <text x="436" y="420" fill="#333333" font-size="13" font-weight="600">⚙ AWS KMS Configuration</text>
  <rect x="436" y="432" width="70" height="22" rx="11" fill="#e3f0fc" stroke="#4a90d9" stroke-width="1"/>
  <text x="471" y="448" text-anchor="middle" fill="#4a90d9" font-size="10" font-weight="600">Config</text>
  <text x="436" y="472" fill="#999999" font-size="11">Synced 1 hour ago</text>
  <rect x="436" y="485" width="80" height="26" rx="4" fill="#e8e8e8" stroke="#bbbbbb" stroke-width="1"/>
  <text x="476" y="503" text-anchor="middle" fill="#666666" font-size="10">View</text>
  <rect x="526" y="485" width="80" height="26" rx="4" fill="#e8e8e8" stroke="#bbbbbb" stroke-width="1"/>
  <text x="566" y="503" text-anchor="middle" fill="#666666" font-size="10">Download</text>
  <rect x="616" y="485" width="80" height="26" rx="4" fill="#e8e8e8" stroke="#bbbbbb" stroke-width="1"/>
  <text x="656" y="503" text-anchor="middle" fill="#666666" font-size="10">Link</text>

  <rect x="800" y="390" width="360" height="140" rx="8" fill="#f5f5f5" stroke="#bbbbbb" stroke-width="1.5"/>
  <text x="816" y="420" fill="#333333" font-size="13" font-weight="600">📊 Penetration Test Report Q1</text>
  <rect x="816" y="432" width="70" height="22" rx="11" fill="#e3f0fc" stroke="#4a90d9" stroke-width="1"/>
  <text x="851" y="448" text-anchor="middle" fill="#4a90d9" font-size="10" font-weight="600">Report</text>
  <text x="816" y="472" fill="#999999" font-size="11">Completed Mar 2026</text>
  <rect x="816" y="485" width="80" height="26" rx="4" fill="#e8e8e8" stroke="#bbbbbb" stroke-width="1"/>
  <text x="856" y="503" text-anchor="middle" fill="#666666" font-size="10">View</text>
  <rect x="906" y="485" width="80" height="26" rx="4" fill="#e8e8e8" stroke="#bbbbbb" stroke-width="1"/>
  <text x="946" y="503" text-anchor="middle" fill="#666666" font-size="10">Download</text>
  <rect x="996" y="485" width="80" height="26" rx="4" fill="#e8e8e8" stroke="#bbbbbb" stroke-width="1"/>
  <text x="1036" y="503" text-anchor="middle" fill="#666666" font-size="10">Link</text>

  <rect x="40" y="550" width="360" height="140" rx="8" fill="#f5f5f5" stroke="#bbbbbb" stroke-width="1.5"/>
  <text x="56" y="580" fill="#333333" font-size="13" font-weight="600">🔍 Vendor Risk Assessment</text>
  <rect x="56" y="592" width="61" height="22" rx="11" fill="#e3f0fc" stroke="#4a90d9" stroke-width="1"/>
  <text x="86" y="608" text-anchor="middle" fill="#4a90d9" font-size="10" font-weight="600">Audit</text>
  <text x="56" y="632" fill="#999999" font-size="11">Updated 5 days ago</text>
  <rect x="56" y="645" width="80" height="26" rx="4" fill="#e8e8e8" stroke="#bbbbbb" stroke-width="1"/>
  <text x="96" y="663" text-anchor="middle" fill="#666666" font-size="10">View</text>
  <rect x="146" y="645" width="80" height="26" rx="4" fill="#e8e8e8" stroke="#bbbbbb" stroke-width="1"/>
  <text x="186" y="663" text-anchor="middle" fill="#666666" font-size="10">Download</text>
  <rect x="236" y="645" width="80" height="26" rx="4" fill="#e8e8e8" stroke="#bbbbbb" stroke-width="1"/>
  <text x="276" y="663" text-anchor="middle" fill="#666666" font-size="10">Link</text>

  <rect x="420" y="550" width="360" height="140" rx="8" fill="#f5f5f5" stroke="#bbbbbb" stroke-width="1.5"/>
  <text x="436" y="580" fill="#333333" font-size="13" font-weight="600">📄 Access Control Matrix</text>
  <rect x="436" y="592" width="70" height="22" rx="11" fill="#e3f0fc" stroke="#4a90d9" stroke-width="1"/>
  <text x="471" y="608" text-anchor="middle" fill="#4a90d9" font-size="10" font-weight="600">Policy</text>
  <text x="436" y="632" fill="#999999" font-size="11">Updated 1 day ago</text>
  <rect x="436" y="645" width="80" height="26" rx="4" fill="#e8e8e8" stroke="#bbbbbb" stroke-width="1"/>
  <text x="476" y="663" text-anchor="middle" fill="#666666" font-size="10">View</text>
  <rect x="526" y="645" width="80" height="26" rx="4" fill="#e8e8e8" stroke="#bbbbbb" stroke-width="1"/>
  <text x="566" y="663" text-anchor="middle" fill="#666666" font-size="10">Download</text>
  <rect x="616" y="645" width="80" height="26" rx="4" fill="#e8e8e8" stroke="#bbbbbb" stroke-width="1"/>
  <text x="656" y="663" text-anchor="middle" fill="#666666" font-size="10">Link</text>

  <rect x="800" y="550" width="360" height="140" rx="8" fill="#f5f5f5" stroke="#bbbbbb" stroke-width="1.5"/>
  <text x="816" y="580" fill="#333333" font-size="13" font-weight="600">📄 Backup &amp; Recovery Runbook</text>
  <rect x="816" y="592" width="70" height="22" rx="11" fill="#e3f0fc" stroke="#4a90d9" stroke-width="1"/>
  <text x="851" y="608" text-anchor="middle" fill="#4a90d9" font-size="10" font-weight="600">Policy</text>
  <text x="816" y="632" fill="#999999" font-size="11">Updated 2 weeks ago</text>
  <rect x="816" y="645" width="80" height="26" rx="4" fill="#e8e8e8" stroke="#bbbbbb" stroke-width="1"/>
  <text x="856" y="663" text-anchor="middle" fill="#666666" font-size="10">View</text>
  <rect x="906" y="645" width="80" height="26" rx="4" fill="#e8e8e8" stroke="#bbbbbb" stroke-width="1"/>
  <text x="946" y="663" text-anchor="middle" fill="#666666" font-size="10">Download</text>
  <rect x="996" y="645" width="80" height="26" rx="4" fill="#e8e8e8" stroke="#bbbbbb" stroke-width="1"/>
  <text x="1036" y="663" text-anchor="middle" fill="#666666" font-size="10">Link</text>
</svg>