<?xml version="1.0" encoding="UTF-8"?>
<svg xmlns="http://www.w3.org/2000/svg" width="1200" height="900" viewBox="0 0 1200 900">
  <defs>
    <style>
      text { font-family: 'Segoe UI', Arial, Helvetica, sans-serif; }
    </style>
  </defs>
  <rect width="1200" height="900" fill="#ffffff"/>
  <title>Questionnaire Responder</title>

  <!-- Top Navigation Bar -->
  <rect x="0" y="0" width="1200" height="56" fill="#f5f5f5" stroke="#bbbbbb" stroke-width="1"/>
  <rect x="20" y="16" width="120" height="24" rx="4" fill="#4a90d9"/>
  <text x="80" y="33" text-anchor="middle" fill="white" font-size="13" font-weight="bold">SecureFlow</text>
  <text x="200" y="35" fill="#333333" font-size="13" font-weight="600">Dashboard</text>
  <text x="295" y="35" fill="#666666" font-size="13">Questionnaires</text>
  <text x="410" y="35" fill="#666666" font-size="13">Evidence</text>
  <text x="495" y="35" fill="#666666" font-size="13">Integrations</text>
  <rect x="1120" y="16" width="60" height="24" rx="12" fill="#e8e8e8" stroke="#bbbbbb" stroke-width="1"/>
  <text x="1150" y="33" text-anchor="middle" fill="#666666" font-size="11">User</text>

  <rect x="0" y="56" width="1200" height="52" fill="#f5f5f5" stroke="#bbbbbb" stroke-width="1"/>
  <text x="40" y="88" fill="#333333" font-size="15" font-weight="bold">SOC 2 Type II Assessment</text>
  <rect x="400" y="74" width="400" height="14" rx="7" fill="#e8e8e8"/>
  <rect x="400" y="74" width="288" height="14" rx="7" fill="#4a90d9"/>
  <text x="820" y="86" fill="#666666" font-size="12">72% complete (36/50)</text>

  <rect x="0" y="108" width="260" height="792" fill="#f5f5f5" stroke="#bbbbbb" stroke-width="1"/>
  <text x="20" y="138" fill="#333333" font-size="13" font-weight="bold">Questions</text>
  <rect x="8" y="158" width="244" height="38" rx="4" fill="#e3f0fc" stroke="#4a90d9" stroke-width="1.5"/>
  <text x="20" y="182" fill="#4a90d9" font-size="12" font-weight="bold">1. Access Control Policy</text>
  <text x="235" y="182" fill="#5cb85c" font-size="14">✓</text>
  <rect x="8" y="202" width="244" height="38" rx="4" fill="#e3f0fc" stroke="#4a90d9" stroke-width="1.5"/>
  <text x="20" y="226" fill="#4a90d9" font-size="12" font-weight="bold">2. User Authentication</text>
  <text x="235" y="226" fill="#5cb85c" font-size="14">✓</text>
  <rect x="8" y="246" width="244" height="38" rx="4" fill="#e3f0fc" stroke="#4a90d9" stroke-width="1.5"/>
  <text x="20" y="270" fill="#4a90d9" font-size="12" font-weight="bold">3. Network Security</text>
  <text x="235" y="270" fill="#5cb85c" font-size="14">✓</text>
  <rect x="8" y="290" width="244" height="38" rx="4" fill="#eaf7ea" />
  <text x="20" y="314" fill="#5cb85c" font-size="12" >4. Data Encryption</text>
  <text x="235" y="314" fill="#5cb85c" font-size="14">✓</text>
  <rect x="8" y="334" width="244" height="38" rx="4" fill="none" />
  <text x="20" y="358" fill="#999999" font-size="12" >5. Incident Response</text>
  <rect x="8" y="378" width="244" height="38" rx="4" fill="none" />
  <text x="20" y="402" fill="#999999" font-size="12" >6. Change Management</text>
  <rect x="8" y="422" width="244" height="38" rx="4" fill="none" />
  <text x="20" y="446" fill="#999999" font-size="12" >7. Backup &amp; Recovery</text>
  <rect x="8" y="466" width="244" height="38" rx="4" fill="none" />
  <text x="20" y="490" fill="#999999" font-size="12" >8. Vendor Management</text>
  <rect x="8" y="510" width="244" height="38" rx="4" fill="none" />
  <text x="20" y="534" fill="#999999" font-size="12" >9. Risk Assessment</text>
  <rect x="8" y="554" width="244" height="38" rx="4" fill="none" />
  <text x="20" y="578" fill="#999999" font-size="12" >10. Logging &amp; Monitoring</text>

  <rect x="290" y="125" width="880" height="90" rx="6" fill="#f5f5f5" stroke="#bbbbbb" stroke-width="1"/>
  <text x="310" y="152" fill="#4a90d9" font-size="12" font-weight="600">Question #4</text>
  <text x="310" y="178" fill="#333333" font-size="14">Describe the encryption standards used for data at rest and</text>
  <text x="310" y="198" fill="#333333" font-size="14">in transit within your infrastructure.</text>

  <text x="290" y="235" fill="#333333" font-size="14" font-weight="bold">AI-Generated Answer</text>
  <text x="460" y="235" fill="#5cb85c" font-size="12">● AI Draft</text>
  <rect x="290" y="247" width="880" height="180" rx="6" fill="#f5f5f5" stroke="#bbbbbb" stroke-width="1"/>
  <text x="310" y="273" fill="#333333" font-size="12">All data at rest is encrypted using AES-256 encryption. Data in transit</text>
  <text x="310" y="293" fill="#333333" font-size="12">is secured using TLS 1.3. Database-level encryption is managed through</text>
  <text x="310" y="313" fill="#333333" font-size="12">AWS KMS with customer-managed keys. Additional encryption details:</text>
  <text x="330" y="335" fill="#666666" font-size="12">• S3 buckets: SSE-KMS encryption enabled</text>
  <text x="330" y="355" fill="#666666" font-size="12">• EBS volumes: AES-256 encrypted</text>
  <text x="330" y="375" fill="#666666" font-size="12">• RDS instances: TDE enabled</text>
  <text x="330" y="395" fill="#666666" font-size="12">• API endpoints: TLS 1.3 enforced</text>
  <text x="330" y="415" fill="#666666" font-size="12">• Internal services: mTLS between microservices</text>

  <text x="290" y="445" fill="#333333" font-size="13" font-weight="bold">Linked Evidence</text>
  <rect x="290" y="455" width="224" height="28" rx="14" fill="#e3f0fc" stroke="#4a90d9" stroke-width="1"/>
  <text x="402" y="474" text-anchor="middle" fill="#4a90d9" font-size="10" font-weight="600">🔗 AES-256 Encryption Policy</text>
  <rect x="524" y="455" width="136" height="28" rx="14" fill="#e3f0fc" stroke="#4a90d9" stroke-width="1"/>
  <text x="592" y="474" text-anchor="middle" fill="#4a90d9" font-size="10" font-weight="600">🔗 AWS KMS Config</text>
  <rect x="670" y="455" width="200" height="28" rx="14" fill="#e3f0fc" stroke="#4a90d9" stroke-width="1"/>
  <text x="770" y="474" text-anchor="middle" fill="#4a90d9" font-size="10" font-weight="600">🔗 TLS Certificate Report</text>
  <rect x="880" y="455" width="248" height="28" rx="14" fill="#e3f0fc" stroke="#4a90d9" stroke-width="1"/>
  <text x="1004" y="474" text-anchor="middle" fill="#4a90d9" font-size="10" font-weight="600">🔗 Network Architecture Diagram</text>

  <rect x="290" y="500" width="120" height="38" rx="5" fill="#4a90d9" stroke="#4a90d9" stroke-width="1.5"/>
  <text x="350" y="524" text-anchor="middle" fill="white" font-size="12" font-weight="600">Approve</text>

  <rect x="430" y="500" width="120" height="38" rx="5" fill="#f5f5f5" stroke="#4a90d9" stroke-width="1.5"/>
  <text x="490" y="524" text-anchor="middle" fill="#4a90d9" font-size="12" font-weight="600">Edit Answer</text>

  <rect x="570" y="500" width="130" height="38" rx="5" fill="#f5f5f5" stroke="#4a90d9" stroke-width="1.5"/>
  <text x="635" y="524" text-anchor="middle" fill="#4a90d9" font-size="12" font-weight="600">Add Evidence</text>

  <rect x="1070" y="500" width="120" height="38" rx="5" fill="#f5f5f5" stroke="#4a90d9" stroke-width="1.5"/>
  <text x="1130" y="524" text-anchor="middle" fill="#4a90d9" font-size="12" font-weight="600">← Previous</text>

  <rect x="1210" y="500" width="120" height="38" rx="5" fill="#4a90d9" stroke="#4a90d9" stroke-width="1.5"/>
  <text x="1270" y="524" text-anchor="middle" fill="white" font-size="12" font-weight="600">Next →</text>
</svg>